<?xml version="1.0" encoding="UTF-8"?>
<!-- Generated by Pixelmator Pro 3.8 -->
<svg width="400" height="139" viewBox="0 0 400 139" xmlns="http://www.w3.org/2000/svg">
    <linearGradient id="linearGradient1" x1="88.498912" y1="99.432881" x2="370.465555" y2="99.432881" gradientUnits="userSpaceOnUse">
        <stop offset="0.63" stop-color="#69a6a8" stop-opacity="1"/>
        <stop offset="0.68" stop-color="#6da8aa" stop-opacity="0.98"/>
        <stop offset="0.74" stop-color="#77aeb0" stop-opacity="0.91"/>
        <stop offset="0.79" stop-color="#89b9ba" stop-opacity="0.79"/>
        <stop offset="0.84" stop-color="#a1c8c9" stop-opacity="0.62"/>
        <stop offset="0.89" stop-color="#c1dadb" stop-opacity="0.41"/>
        <stop offset="0.94" stop-color="#e8f1f2" stop-opacity="0.15"/>
        <stop offset="0.97" stop-color="#ffffff" stop-opacity="0"/>
    </linearGradient>
    <path id="Trazado" fill="url(#linearGradient1)" stroke="none" d="M 335.521393 91.409187 C 318.117462 92.166573 321.139954 90.271652 302.973175 89.894409 C 284.806366 89.517151 255.660629 90.271652 231.060181 94.438751 C 211.759247 95.57338 200.403198 93.681366 181.859329 96.33078 C 162.932571 97.468307 159.617126 94.438751 144.623642 94.815994 C 129.630173 95.19323 100.104416 98.588432 100.104416 98.588432 C 100.104416 98.588432 90.265411 99.891373 82.317612 99.429985 L 82.317612 107.296974 L 91.889771 107.804802 C 95.021904 107.970284 98.16156 107.926659 101.287888 107.67421 L 115.257423 106.539581 L 132.661346 105.782196 L 138.262497 105.248245 C 139.82225 105.095886 141.393112 105.095886 142.952866 105.248245 L 152.936905 105.880859 L 170.509064 108.039856 C 170.509064 108.039856 190.256699 110.312027 200.25235 108.039856 L 230.735306 107.030006 L 267.767944 107.030006 L 275.765045 106.423508 L 294.366913 105.010292 C 294.366913 105.010292 307.129791 102.36087 316.603333 102.36087 L 333.427124 102.36087 L 350.677277 101.603485 C 350.677277 101.603485 356.356781 100.8461 364.310364 102.36087 L 364.310364 92.912354 C 364.310364 92.912354 352.931091 90.640182 335.521393 91.409187 Z"/>
    <path id="path1" fill="#15615f" stroke="none" d="M 100.61203 110.2714 C 99.518501 110.314934 98.422043 110.309128 97.328491 110.2714 L 82.317612 109.589462 L 82.29731 109.589462 L 82.10878 113.01368 C 82.006111 114.694481 80.587418 115.989731 78.904961 115.938759 C 77.222496 115.887787 75.884781 114.509003 75.883972 112.82505 L 75.883972 109.206413 L 75.651924 109.19191 L 50.523567 109.19191 C 50.523567 109.19191 64.907898 120.55275 89.427116 120.665932 C 113.946342 120.779106 128.327759 109.19191 128.327759 109.19191 Z"/>
    <path id="path2" fill="#214f4f" stroke="none" d="M 141.290787 121.521988 L 142.857147 121.521988 L 142.857147 129.275803 L 141.290787 129.275803 Z"/>
    <path id="path3" fill="#214f4f" stroke="none" d="M 146.752716 121.521988 L 148.371292 121.521988 L 152.826691 126.397141 L 154.155182 128.001877 L 154.230606 128.001877 C 154.152283 127.221268 154.033371 126.347816 154.033371 125.535278 L 154.033371 121.521988 L 155.521378 121.521988 L 155.521378 129.275803 L 153.902832 129.275803 L 149.444534 124.397743 L 148.116028 122.795898 L 148.040604 122.795898 C 148.118927 123.582314 148.240753 124.406456 148.240753 125.218979 L 148.240753 129.281616 L 146.752716 129.281616 Z"/>
    <path id="path4" fill="#214f4f" stroke="none" d="M 158.7005 125.407593 C 158.7005 122.906174 161.090637 121.379799 164.353882 121.379799 C 165.606186 121.338867 166.842255 121.672272 167.904266 122.337418 L 167.034073 122.978722 C 166.245773 122.469727 165.320541 122.214516 164.382889 122.247459 C 161.902817 122.247459 160.321976 123.448822 160.321976 125.381485 C 160.321976 127.314125 161.772308 128.550323 164.414795 128.550323 C 165.180466 128.580948 165.942062 128.424576 166.633789 128.094727 L 166.633789 126.063416 L 164.023193 126.063416 L 164.023193 125.247993 L 168.058014 125.247993 L 168.058014 128.506821 C 167.266144 129.026245 165.917328 129.406387 164.263962 129.406387 C 161.015228 129.423798 158.7005 127.923531 158.7005 125.407593 Z"/>
    <path id="path5" fill="#214f4f" stroke="none" d="M 171.518494 121.521988 L 178.616394 121.521988 L 178.616394 122.357727 L 173.087738 122.357727 L 173.087738 124.780792 L 177.751984 124.780792 L 177.751984 125.616539 L 173.087738 125.616539 L 173.087738 128.434265 L 178.804932 128.434265 L 178.804932 129.269989 L 171.518494 129.269989 Z"/>
    <path id="path6" fill="#214f4f" stroke="none" d="M 181.931839 121.521988 L 183.5504 121.521988 L 188.008698 126.397141 L 189.337204 128.001877 L 189.412613 128.001877 C 189.33429 127.221268 189.212479 126.347816 189.212479 125.535278 L 189.212479 121.521988 L 190.700516 121.521988 L 190.700516 129.275803 L 189.08194 129.275803 L 184.626541 124.397743 L 183.298035 122.795898 L 183.22261 122.795898 C 183.300934 123.582314 183.419876 124.406456 183.419876 125.218979 L 183.419876 129.281616 L 181.931839 129.281616 Z"/>
    <path id="path7" fill="#214f4f" stroke="none" d="M 194.598984 121.521988 L 196.165344 121.521988 L 196.165344 129.275803 L 194.598984 129.275803 Z"/>
    <path id="path8" fill="#214f4f" stroke="none" d="M 200.058014 121.521988 L 207.155899 121.521988 L 207.155899 122.357727 L 201.624359 122.357727 L 201.624359 124.780792 L 206.291519 124.780792 L 206.291519 125.616539 L 201.624359 125.616539 L 201.624359 128.434265 L 207.344452 128.434265 L 207.344452 129.269989 L 200.058014 129.269989 Z"/>
    <path id="path9" fill="#214f4f" stroke="none" d="M 210.471344 121.521988 L 214.329224 121.521988 C 216.838287 121.521988 218.636688 122.102364 218.636688 123.704193 C 218.636688 125.253799 216.838287 125.999588 214.329224 125.999588 L 212.037704 125.999588 L 212.037704 129.275803 L 210.471344 129.275803 Z M 214.102966 125.198662 C 216.020294 125.198662 217.076141 124.711151 217.076141 123.704193 C 217.076141 122.69725 216.020294 122.322906 214.102966 122.322906 L 212.037704 122.322906 L 212.037704 125.198662 Z M 214.01886 125.729713 L 215.248734 125.218979 L 219.005081 129.281616 L 217.229889 129.281616 Z"/>
    <path id="path10" fill="#214f4f" stroke="none" d="M 220.960114 125.361168 C 220.960114 122.877159 223.129807 121.368179 226.221909 121.368179 C 229.314011 121.368179 231.486603 122.880066 231.486603 125.361168 C 231.486603 127.84227 229.314011 129.423798 226.221909 129.423798 C 223.129807 129.423798 220.960114 127.853889 220.960114 125.361168 Z M 229.868011 125.361168 C 229.868011 123.428528 228.417679 122.23584 226.221909 122.23584 C 224.026093 122.23584 222.578674 123.428528 222.578674 125.361168 C 222.578674 127.293816 224.028992 128.553238 226.221909 128.553238 C 228.41478 128.553238 229.868011 127.302528 229.868011 125.361168 Z"/>
    <path id="path11" fill="#214f4f" stroke="none" d="M 233.76651 128.263046 L 234.703415 127.586906 C 235.722183 128.22168 236.899902 128.554703 238.100067 128.547424 C 239.715744 128.547424 240.675842 128.042496 240.675842 127.288025 C 240.675842 126.533524 239.782455 126.243332 238.619293 125.924133 L 236.849899 125.433716 C 235.689636 125.123215 234.358215 124.563156 234.358215 123.434319 C 234.358215 122.250366 235.997086 121.376892 238.233521 121.376892 C 239.508148 121.35125 240.764404 121.684052 241.859329 122.337418 L 241.029724 122.972931 C 240.182968 122.47599 239.214996 122.223846 238.233521 122.244553 C 236.852798 122.244553 235.939087 122.682739 235.939087 123.376274 C 235.939087 124.124969 237.012314 124.403549 237.969543 124.65892 L 239.709946 125.137718 C 241.134171 125.523674 242.245102 126.060516 242.245102 127.21257 C 242.245102 128.437149 240.638138 129.415085 238.050781 129.415085 C 236.541962 129.448761 235.05513 129.04895 233.76651 128.263046 Z"/>
    <path id="path12" fill="#214f4f" stroke="none" d="M 250.28862 127.163239 C 250.28862 124.862053 255.18782 124.487701 255.18782 122.810425 C 255.18782 122.360619 254.897751 121.957275 254.175491 121.957275 C 253.372009 121.957275 252.855682 122.438972 252.855682 123.08609 C 252.855682 124.537025 255.060165 126.466782 257.11676 127.569496 C 257.856232 127.986549 258.651215 128.29628 259.477905 128.48941 L 259.112427 129.299026 C 258.128693 129.084732 257.183685 128.720642 256.310364 128.219513 C 253.960846 126.902069 251.698334 124.737259 251.698334 123.100609 C 251.698334 122.064636 252.687454 121.260811 254.172592 121.260811 C 255.501083 121.260811 256.281372 121.893417 256.281372 122.795898 C 256.281372 124.786606 251.593903 125.390182 251.593903 127.093582 C 251.593903 127.964142 252.530807 128.524231 253.711395 128.524231 C 254.607407 128.494873 255.469635 128.175095 256.168243 127.613029 C 257.041626 126.929962 257.708374 126.017815 258.094269 124.978119 L 259.341553 124.978119 C 258.863281 126.180054 258.09494 127.244804 257.105133 128.077332 C 256.10321 128.889496 254.847015 129.322098 253.557648 129.299026 C 251.617096 129.310623 250.28862 128.411041 250.28862 127.163239 Z"/>
    <path id="path13" fill="#214f4f" stroke="none" d="M 267.765045 125.677483 C 267.765045 123.176048 270.102997 121.649673 273.229858 121.649673 C 274.428467 121.623619 275.607452 121.957146 276.614929 122.607285 L 275.744751 123.248596 C 275.005493 122.755096 274.132935 122.499901 273.244385 122.517334 C 270.923859 122.517334 269.372009 123.718712 269.372009 125.65136 C 269.372009 127.584 270.84845 128.820206 273.183472 128.820206 C 274.203552 128.843567 275.204163 128.538376 276.03772 127.949638 L 276.907898 128.570648 C 275.936188 129.281616 274.729523 129.687866 273.137054 129.687866 C 270.050751 129.687866 267.765045 128.196304 267.765045 125.677483 Z"/>
    <path id="path14" fill="#214f4f" stroke="none" d="M 278.720825 125.65136 C 278.720825 123.167351 280.893402 121.658371 283.985504 121.658371 C 287.077576 121.658371 289.250153 123.170258 289.250153 125.65136 C 289.250153 128.132462 287.077576 129.696579 283.985504 129.696579 C 280.893402 129.696579 278.720825 128.126663 278.720825 125.65136 Z M 287.631622 125.65136 C 287.631622 123.718712 286.181274 122.526031 283.985504 122.526031 C 281.789703 122.526031 280.339355 123.718712 280.339355 125.65136 C 280.339355 127.584 281.789703 128.828918 283.985504 128.828918 C 286.181274 128.828918 287.631622 127.572403 287.631622 125.65136 Z"/>
    <path id="path15" fill="#214f4f" stroke="none" d="M 292.675842 121.791862 L 294.294403 121.791862 L 298.767212 126.667015 L 300.098602 128.274643 L 300.174042 128.274643 C 300.065857 127.455376 299.999054 126.631165 299.973907 125.805168 L 299.973907 121.791862 L 301.461945 121.791862 L 301.461945 129.54567 L 299.843353 129.54567 L 295.38504 124.667618 L 294.05658 123.065788 L 293.98114 123.065788 C 294.059479 123.852188 294.181274 124.679237 294.181274 125.488853 L 294.181274 129.551483 L 292.675842 129.551483 Z"/>
    <path id="path16" fill="#214f4f" stroke="none" d="M 304.71936 128.553238 L 305.656281 127.874191 C 306.675171 128.508652 307.852783 128.841675 309.052917 128.834717 C 310.671509 128.834717 311.628693 128.329788 311.628693 127.575302 C 311.628693 126.820824 310.735321 126.530632 309.575043 126.211418 L 307.805664 125.721001 C 306.645416 125.410492 305.311127 124.850433 305.311127 123.724503 C 305.311127 122.537643 306.949951 121.664177 309.18927 121.664177 C 310.463715 121.640396 311.719421 121.973053 312.815094 122.624695 L 311.982605 123.260208 C 311.136749 122.763649 310.169769 122.51152 309.18927 122.531837 C 307.808563 122.531837 306.891968 122.970024 306.891968 123.663574 C 306.891968 124.412247 307.965179 124.690834 308.922424 124.949104 L 310.662811 125.42791 C 312.087036 125.810959 313.200867 126.347816 313.200867 127.499855 C 313.200867 128.724457 311.593903 129.702393 309.003632 129.702393 C 307.495239 129.735611 306.008789 129.336914 304.71936 128.553238 Z"/>
    <path id="path17" fill="#214f4f" stroke="none" d="M 316.368408 126.34491 L 316.368408 121.791862 L 317.934723 121.791862 L 317.934723 126.371017 C 317.934723 128.236923 319.184906 128.820206 320.794769 128.820206 C 322.404633 128.820206 323.71283 128.239822 323.71283 126.371017 L 323.71283 121.791862 L 325.215393 121.791862 L 325.215393 126.34491 C 325.215393 128.834717 323.306732 129.687866 320.794769 129.687866 C 318.282837 129.687866 316.368408 128.84343 316.368408 126.34491 Z"/>
    <path id="path18" fill="#214f4f" stroke="none" d="M 329.311096 121.791862 L 330.877441 121.791862 L 330.877441 128.71283 L 336.25235 128.71283 L 336.25235 129.54567 L 329.311096 129.54567 Z"/>
    <path id="path19" fill="#214f4f" stroke="none" d="M 339.53009 122.627602 L 335.805634 122.627602 L 335.805634 121.791862 L 344.820892 121.791862 L 344.820892 122.627602 L 341.096466 122.627602 L 341.096466 129.54567 L 339.53009 129.54567 Z"/>
    <path id="path20" fill="#214f4f" stroke="none" d="M 346.645416 125.65136 C 346.645416 123.167351 348.817993 121.658371 351.910065 121.658371 C 355.002167 121.658371 357.171844 123.170258 357.171844 125.65136 C 357.171844 128.132462 355.002167 129.696579 351.910065 129.696579 C 348.817993 129.696579 346.645416 128.126663 346.645416 125.65136 Z M 355.553314 125.65136 C 355.553314 123.718712 354.102966 122.526031 351.910065 122.526031 C 349.717194 122.526031 348.263977 123.718712 348.263977 125.65136 C 348.263977 127.584 349.714294 128.828918 351.910065 128.828918 C 354.105896 128.828918 355.553314 127.572403 355.553314 125.65136 Z"/>
    <path id="path21" fill="#214f4f" stroke="none" d="M 360.609131 121.791862 L 364.464111 121.791862 C 366.973175 121.791862 368.774475 122.372238 368.774475 123.97406 C 368.774475 125.523674 366.973175 126.269455 364.464111 126.269455 L 362.175476 126.269455 L 362.175476 129.54567 L 360.609131 129.54567 Z M 364.240753 125.468536 C 366.155182 125.468536 367.210999 124.981026 367.210999 123.97406 C 367.210999 122.967117 366.155182 122.592781 364.240753 122.592781 L 362.175476 122.592781 L 362.175476 125.468536 Z M 364.156647 125.999588 L 365.383636 125.488853 L 369.15448 129.551483 L 367.376373 129.551483 Z"/>
    <path id="path22" fill="#214f4f" stroke="none" d="M 372.07251 121.791862 L 379.17041 121.791862 L 379.17041 122.627602 L 373.638855 122.627602 L 373.638855 125.070984 L 378.306 125.070984 L 378.306 125.906723 L 373.638855 125.906723 L 373.638855 128.727341 L 379.358948 128.727341 L 379.358948 129.560181 L 372.07251 129.560181 Z"/>
    <path id="path23" fill="#214f4f" stroke="none" d="M 381.856415 128.553238 L 382.793335 127.874191 C 383.812256 128.508652 384.989838 128.841675 386.190002 128.834717 C 387.808563 128.834717 388.765778 128.329788 388.765778 127.575302 C 388.765778 126.820824 387.875244 126.530632 386.712097 126.211418 L 384.942688 125.721001 C 383.78244 125.410492 382.448151 124.850433 382.448151 123.724503 C 382.448151 122.537643 384.087036 121.664177 386.326324 121.664177 C 387.600739 121.640396 388.856506 121.973053 389.952148 122.624695 L 389.119659 123.260208 C 388.273773 122.763649 387.306854 122.51152 386.326324 122.531837 C 384.945618 122.531837 384.028992 122.970024 384.028992 123.663574 C 384.028992 124.412247 385.102264 124.690834 386.059448 124.949104 L 387.799835 125.42791 C 389.22406 125.810959 390.337921 126.347816 390.337921 127.499855 C 390.337921 128.724457 388.730957 129.702393 386.140686 129.702393 C 384.632324 129.735611 383.145874 129.336914 381.856415 128.553238 Z"/>
    <path id="path24" fill="#69a6a8" stroke="none" d="M 33.493835 92.912354 C 33.493835 92.912354 51.660625 93.289597 69.827415 97.845551 C 71.579285 98.127785 73.35273 98.254036 75.126907 98.222794 L 75.503983 107.311478 C 75.503983 107.311478 60.037712 106.951645 54.001453 107.984718 C 53.66996 108.041641 53.334167 108.069801 52.997822 108.068863 L 48.963013 108.068863 C 48.963013 108.068863 41.061638 102.755524 33.493835 92.912354 Z"/>
    <path id="path25" fill="#a8d5ca" stroke="none" d="M 25.923132 79.279335 C 27.362915 83.084862 29.136324 86.755539 31.22263 90.248436 C 31.22263 90.248436 49.02103 89.502647 68.690353 94.427147 C 68.690353 94.427147 69.070343 94.804382 70.961571 94.804382 L 68.690353 84.581055 C 68.690353 84.581055 68.313271 81.551514 67.93618 84.203812 C 67.724442 85.683784 66.567078 86.693634 65.586655 87.294327 C 64.622932 87.892395 63.400124 87.87767 62.45105 87.256599 C 61.353664 86.496506 60.497826 85.436829 59.985493 84.203812 L 58.279919 81.641464 C 57.922684 81.107285 57.342072 80.764526 56.701962 80.709961 L 44.188541 79.659485 Z"/>
    <path id="path26" fill="#165a5b" stroke="none" d="M 73.966644 96.130547 C 73.613602 96.130951 73.275116 95.989868 73.026833 95.738785 C 71.43438 94.12825 70.915154 91.438202 70.259598 88.031395 C 69.804207 85.680878 69.299492 83.051773 68.348083 80.445877 C 68.205948 80.736069 68.058014 81.098801 67.898476 81.464439 C 66.984772 83.591522 65.737495 86.502121 63.271938 86.278671 C 62.645397 86.223526 61.934731 86.156792 58.233505 80.39946 C 58.128944 80.229553 57.948177 80.121262 57.749092 80.109268 C 52.275562 79.743629 26.163891 79.273529 25.899929 79.267715 C 25.168961 79.267715 24.844088 77.471451 24.59753 76.783707 C 24.408991 76.249771 26.364037 76.612503 27.083393 76.618317 C 28.159533 76.635727 52.385788 77.094208 57.926037 77.462753 C 58.959915 77.536133 59.899036 78.091888 60.461205 78.963028 C 61.406361 80.468033 62.431767 81.921066 63.532993 83.315842 C 63.58477 83.379692 63.662563 83.416779 63.744747 83.416779 C 63.82692 83.416779 63.90472 83.379692 63.956486 83.315842 C 64.327775 82.847672 64.830556 81.880379 65.464828 80.413963 C 65.736046 79.725067 66.058937 79.057678 66.43074 78.417465 C 66.916824 77.654274 67.759689 77.193253 68.664253 77.195786 C 68.834198 77.195526 69.002609 77.228043 69.160255 77.291534 C 69.702263 77.487717 70.146538 77.887428 70.398842 78.405869 C 71.715736 81.597931 72.324883 84.743576 72.861496 87.526474 C 73.406822 90.355804 73.876724 92.802086 74.891953 93.849655 C 75.282379 94.224503 75.405197 94.799469 75.202019 95.301239 C 74.998848 95.802994 74.510674 96.130318 73.969543 96.12764 Z"/>
    <path id="path27" fill="#a8d5ca" stroke="none" d="M 166.233505 83.756927 C 166.114578 82.886368 165.992752 81.957764 165.862213 80.953705 C 165.731689 79.949669 164.736771 79.935165 164.542419 80.889877 C 163.811447 84.476593 163.341553 85.872391 163.292252 86.014587 C 162.76619 87.539948 161.328644 88.561722 159.715729 88.556633 C 155.854965 88.556633 154.625092 84.264763 154.204498 82.20153 C 154.166779 81.998398 154.126175 81.789452 154.085571 81.571808 C 153.994339 81.072601 153.608063 80.679512 153.110703 80.579742 C 152.613312 80.479973 152.105423 80.69368 151.828857 81.119118 C 151.498413 81.613037 151.054886 82.020943 150.535156 82.308899 C 150.064606 82.596748 149.538895 82.782593 148.992035 82.854454 C 148.162506 82.991943 147.310822 82.877747 146.546768 82.526535 C 145.978012 82.266869 145.466354 81.897018 145.041336 81.438339 C 143.173325 79.450531 140.165329 79.195175 137.836121 80.611282 C 136.946396 81.1689 135.928894 81.489578 134.880341 81.542801 L 134.787521 81.542801 L 131.240036 81.618248 C 124.510513 81.763344 109.374908 82.091255 105.746193 82.366943 L 105.386513 82.810913 C 104.461205 83.971664 102.912247 85.907211 100.301659 85.907211 C 99.301109 85.895355 98.322952 85.609306 97.473526 85.080185 C 97.105156 87.213058 96.313263 90.071426 93.238579 91.310516 C 91.931885 91.863831 90.445587 91.798805 89.192169 91.133499 C 88.664032 90.852562 88.192078 90.476807 87.799858 90.024979 C 87.509789 91.708084 87.254532 93.463722 87.045692 95.094574 C 86.991447 95.51886 86.865929 95.930939 86.6744 96.31337 C 87.962288 96.261124 95.95649 95.918701 106.625099 94.940765 C 123.199417 92.532211 154.471344 90.587952 167.480789 93.669739 L 169.08194 93.669739 C 168.092819 92.532211 167.767944 90.852036 167.538803 89.665154 C 167.263245 88.269348 166.584473 86.339615 166.233505 83.756927 Z"/>
    <linearGradient id="linearGradient2" x1="174.851342" y1="86.240939" x2="364.287165" y2="86.240939" gradientUnits="userSpaceOnUse">
        <stop offset="0.68" stop-color="#a8d5ca" stop-opacity="1"/>
        <stop offset="0.72" stop-color="#aad6cb" stop-opacity="0.98"/>
        <stop offset="0.77" stop-color="#aed8ce" stop-opacity="0.93"/>
        <stop offset="0.81" stop-color="#b7dcd3" stop-opacity="0.83"/>
        <stop offset="0.85" stop-color="#c2e1da" stop-opacity="0.7"/>
        <stop offset="0.9" stop-color="#d0e9e3" stop-opacity="0.53"/>
        <stop offset="0.94" stop-color="#e2f1ee" stop-opacity="0.33"/>
        <stop offset="0.98" stop-color="#f7fbfa" stop-opacity="0.09"/>
        <stop offset="1" stop-color="#ffffff" stop-opacity="0"/>
    </linearGradient>
    <path id="path28" fill="url(#linearGradient2)" stroke="none" d="M 216.258148 79.198074 C 214.99057 78.359444 212.542419 78.997849 211.544601 80.146996 C 210.192902 81.702393 208.878891 82.497513 206.903549 82.497513 C 205.62146 82.497513 204.002899 82.050629 202.66861 80.23114 C 202.462769 79.962708 202.126251 79.828949 201.792389 79.882896 C 201.458542 79.936844 201.181229 80.169785 201.070343 80.48941 C 200.07251 83.312935 198.685989 85.149826 196.057999 85.149826 C 192.464111 85.149826 190.897751 81.957764 190.329224 80.080261 C 190.230606 79.758133 190.134872 79.41571 190.039154 79.052979 C 190.008286 78.938225 189.906708 78.856659 189.78804 78.851364 C 189.669357 78.846054 189.560928 78.918228 189.519943 79.029778 C 189.438736 79.256119 189.357498 79.470856 189.279175 79.679794 C 188.313278 82.242142 187.599716 84.392441 184.530807 84.392441 C 181.105148 84.392441 181.488037 83.066284 179.309647 79.337372 C 179.234222 79.206787 178.172592 83.400009 177.702682 85.805656 C 177.405243 87.445137 177.01004 89.065331 176.519211 90.657593 C 176.196594 91.774895 175.625397 92.804672 174.848434 93.669739 L 176.176941 93.669739 C 176.176941 93.669739 202.282806 91.017441 226.894836 91.397583 C 251.506866 91.777725 243.92746 86.464386 283.289337 86.464386 C 322.651184 86.464386 303.727325 87.221771 331.730255 88.3564 C 331.730255 88.3564 342.706299 87.599014 364.281372 87.976257 L 364.281372 80.350128 L 218.343719 79.479568 C 217.643036 79.432541 216.946259 79.338493 216.258148 79.198074 Z"/>
    <path id="path29" fill="#006a7a" stroke="none" d="M 57.722988 39.523598 L 66.201599 39.523598 L 66.047867 66.406609 C 66.047867 66.406609 66.047867 72.842972 59.234226 75.872528 C 59.234226 75.872528 47.124001 78.144691 41.44743 74.737885 L 42.961563 68.298615 C 42.961563 68.298615 47.512688 70.274796 51.562004 70.065872 C 54.709206 69.900459 57.554752 67.967796 57.722988 65.6492 Z"/>
    <path id="path30" fill="#006a7a" stroke="none" d="M 112.974617 64.131523 C 112.974617 64.131523 121.676575 62.616753 122.436539 53.150826 C 122.813637 42.170105 110.068169 40.278076 110.068169 40.278076 L 89.792603 40.278076 L 89.885429 76.627014 L 98.407547 76.627014 L 98.407547 65.019501 L 104.646851 64.891815 L 113.905731 76.629913 L 123.646126 76.629913 Z M 107.106598 58.829788 L 98.213203 58.829788 L 98.213203 46.720253 L 107.106598 46.720253 C 110.555481 46.720253 113.351715 49.137505 113.351715 52.587845 L 113.351715 52.587845 C 113.350105 56.037262 110.554543 58.832687 107.106598 58.832687 Z"/>
    <path id="path31" fill="#165f5f" stroke="none" d="M 74.729515 18.6968 L 81.580856 18.6968 C 81.779495 18.6968 81.940536 18.85791 81.940536 19.056648 L 81.940536 25.153481 C 81.940536 25.352226 81.779495 25.513329 81.580856 25.513329 L 74.729515 25.513329 C 74.530876 25.513329 74.369835 25.352226 74.369835 25.153481 L 74.369835 19.056648 C 74.369835 18.85791 74.530876 18.6968 74.729515 18.6968 Z"/>
    <path id="path32" fill="#165f5f" stroke="none" d="M 72.85569 27.028107 L 83.831764 27.028107 L 83.831764 28.920135 L 72.85569 28.920135 Z"/>
    <path id="path33" fill="#165f5f" stroke="none" d="M 72.85569 29.677521 L 83.831764 29.677521 L 83.831764 30.812149 L 72.85569 30.812149 Z"/>
    <path id="path34" fill="#165f5f" stroke="none" d="M 72.85569 31.949677 L 83.828865 31.949677 L 83.828865 31.949677 L 83.828865 33.516701 C 83.828865 33.906143 83.513283 34.221855 83.124008 34.221855 L 73.551849 34.221855 C 73.162575 34.221855 72.846992 33.906143 72.846992 33.516701 L 72.846992 31.949677 L 72.85569 31.949677 Z"/>
    <path id="path35" fill="#165f5f" stroke="none" d="M 75.883972 35.736649 L 80.803482 35.736649 L 80.803482 55.425888 L 75.883972 55.425888 Z"/>
    <path id="path36" fill="#165f5f" stroke="none" d="M 75.883972 56.940659 L 80.803482 56.940659 L 80.803482 59.212837 L 75.883972 59.212837 Z"/>
    <path id="path37" fill="#165f5f" stroke="none" d="M 81.180565 69.056007 L 81.180565 67.541229 L 80.803482 67.541229 L 80.803482 60.727623 L 75.883972 60.727623 L 75.883972 68.298615 L 75.503983 68.298615 L 75.503983 69.056007 L 75.883972 69.056007 L 75.883972 70.19355 L 75.503983 70.19355 L 75.503983 70.950943 L 75.883972 70.950943 L 75.883972 71.708328 L 75.503983 71.708328 L 75.503983 72.842972 L 75.883972 72.842972 L 75.883972 73.223114 L 75.503983 73.223114 L 75.503983 73.980499 L 75.883972 73.980499 L 77.018135 73.980499 L 80.803482 73.980499 L 80.803482 71.708328 L 81.180565 71.708328 L 81.180565 70.19355 L 80.803482 70.19355 L 80.803482 69.056007 L 81.180565 69.056007 Z"/>
    <path id="path38" fill="#165f5f" stroke="none" d="M 75.883972 76.252678 L 75.503983 76.252678 L 75.503983 77.010063 L 75.883972 77.010063 L 75.883972 78.52195 L 75.503983 78.52195 L 75.503983 79.279335 L 75.883972 79.279335 L 75.883972 80.41687 L 75.503983 80.41687 L 75.503983 81.174255 L 75.883972 81.174255 L 75.883972 81.931656 L 75.503983 81.931656 L 75.503983 83.823669 L 75.883972 83.823669 L 75.883972 85.718605 L 75.503983 85.718605 L 75.503983 86.47599 L 75.883972 86.47599 L 75.883972 88.368027 L 75.503983 88.368027 L 75.503983 89.125412 L 75.901375 89.125412 C 75.944786 89.636703 76.12294 90.127357 76.417694 90.547333 L 77.398117 91.928619 L 78.343735 112.221451 C 78.361137 112.862778 78.395943 113.356094 79.03698 113.356094 C 79.678032 113.356094 79.643219 112.851173 79.678032 112.221451 L 80.803482 76.238159 L 75.872375 76.238159 Z"/>
    <path id="path39" fill="#33797b" stroke="none" d="M 70.961571 102.56691 C 70.961571 102.881027 70.622604 103.135666 70.204506 103.135666 C 69.786377 103.135666 69.447426 102.881027 69.447426 102.56691 C 69.447426 102.252777 69.786377 101.998138 70.204506 101.998138 C 70.622604 101.998138 70.961571 102.252777 70.961571 102.56691 Z"/>
    <path id="path40" fill="#c4f7fc" stroke="none" d="M 66.799133 104.458923 C 66.799133 104.773056 66.460175 105.027702 66.042061 105.027702 C 65.62394 105.027702 65.284988 104.773056 65.284988 104.458923 C 65.284988 104.144806 65.62394 103.890167 66.042061 103.890167 C 66.460175 103.890167 66.799133 104.144806 66.799133 104.458923 Z"/>
    <path id="path41" fill="#cbfeff" stroke="none" d="M 51.28064 104.839088 C 51.28064 105.153206 50.772858 105.407852 50.146484 105.407852 C 49.520111 105.407852 49.012329 105.153206 49.012329 104.839088 C 49.012329 104.524956 49.520111 104.270317 50.146484 104.270317 C 50.772858 104.270317 51.28064 104.524956 51.28064 104.839088 Z"/>
    <path id="path42" fill="#569093" stroke="none" d="M 53.931831 99.16011 C 53.931831 99.474228 53.677299 99.728867 53.363308 99.728867 C 53.049316 99.728867 52.794781 99.474228 52.794781 99.16011 C 52.794781 98.845978 53.049316 98.591339 53.363308 98.591339 C 53.677299 98.591339 53.931831 98.845978 53.931831 99.16011 Z"/>
    <path id="path43" fill="#569093" stroke="none" d="M 58.094273 98.968582 C 58.094273 99.176918 57.839729 99.345818 57.525745 99.345818 C 57.211754 99.345818 56.957211 99.176918 56.957211 98.968582 C 56.957211 98.760239 57.211754 98.591339 57.525745 98.591339 C 57.839729 98.591339 58.094273 98.760239 58.094273 98.968582 Z"/>
    <path id="path44" fill="#569093" stroke="none" d="M 62.636696 101.620895 C 62.636696 101.829239 62.382153 101.998138 62.068169 101.998138 C 61.754177 101.998138 61.499634 101.829239 61.499634 101.620895 C 61.499634 101.412552 61.754177 101.243652 62.068169 101.243652 C 62.382153 101.243652 62.636696 101.412552 62.636696 101.620895 Z"/>
    <path id="path45" fill="#569496" stroke="none" d="M 67.176216 100.86351 C 67.176216 101.071854 67.007385 101.240753 66.799133 101.240753 C 66.590866 101.240753 66.422043 101.071854 66.422043 100.86351 C 66.422043 100.655151 66.590866 100.486267 66.799133 100.486267 C 67.007385 100.486267 67.176216 100.655151 67.176216 100.86351 Z"/>
    <path id="path46" fill="#4a8688" stroke="none" d="M 56.203049 104.270317 C 56.203049 104.478653 55.948505 104.647552 55.634514 104.647552 C 55.32053 104.647552 55.06599 104.478653 55.06599 104.270317 C 55.06599 104.061974 55.32053 103.893074 55.634514 103.893074 C 55.948505 103.893074 56.203049 104.061974 56.203049 104.270317 Z"/>
    <path id="path47" fill="#4a8688" stroke="none" d="M 58.471352 104.650459 C 58.471352 104.858803 58.302525 105.027702 58.094273 105.027702 C 57.886017 105.027702 57.71719 104.858803 57.71719 104.650459 C 57.71719 104.442123 57.886017 104.273224 58.094273 104.273224 C 58.302525 104.273224 58.471352 104.442123 58.471352 104.650459 Z"/>
    <path id="path48" fill="#78abb4" stroke="none" d="M 64.527916 111.275452 C 64.527916 111.589569 64.359093 111.844208 64.150833 111.844208 C 63.942574 111.844208 63.773746 111.589569 63.773746 111.275452 C 63.773746 110.961319 63.942574 110.70668 64.150833 110.70668 C 64.359093 110.70668 64.527916 110.961319 64.527916 111.275452 Z"/>
    <path id="path49" fill="#b6e9f2" stroke="none" d="M 62.25671 111.655602 C 62.25671 111.969719 62.087883 112.224358 61.87962 112.224358 C 61.671364 112.224358 61.502537 111.969719 61.502537 111.655602 C 61.502537 111.341469 61.671364 111.086823 61.87962 111.086823 C 62.087883 111.086823 62.25671 111.341469 62.25671 111.655602 Z"/>
    <path id="path50" fill="#b1faf6" stroke="none" d="M 69.827415 112.221451 C 69.827415 112.42981 69.572876 112.598709 69.258881 112.598709 C 68.944893 112.598709 68.690353 112.42981 68.690353 112.221451 C 68.690353 112.013107 68.944893 111.844208 69.258881 111.844208 C 69.572876 111.844208 69.827415 112.013107 69.827415 112.221451 Z"/>
    <path id="path51" fill="#79bcbe" stroke="none" d="M 66.422043 114.873772 C 66.422043 115.082115 66.167511 115.251015 65.853516 115.251015 C 65.539528 115.251015 65.284988 115.082115 65.284988 114.873772 C 65.284988 114.665436 65.539528 114.496536 65.853516 114.496536 C 66.167511 114.496536 66.422043 114.665436 66.422043 114.873772 Z"/>
    <path id="path52" fill="#79bcbe" stroke="none" d="M 73.232765 115.251015 C 73.232765 115.459373 73.063957 115.628273 72.85569 115.628273 C 72.64743 115.628273 72.478607 115.459373 72.478607 115.251015 C 72.478607 115.042671 72.64743 114.873772 72.85569 114.873772 C 73.063957 114.873772 73.232765 115.042671 73.232765 115.251015 Z"/>
    <path id="path53" fill="#a6e3e7" stroke="none" d="M 87.994194 114.116386 C 87.994194 114.534683 87.570831 114.873772 87.048576 114.873772 C 86.526344 114.873772 86.102982 114.534683 86.102982 114.116386 C 86.102982 113.69809 86.526344 113.359001 87.048576 113.359001 C 87.570831 113.359001 87.994194 113.69809 87.994194 114.116386 Z"/>
    <path id="path54" fill="#8fc3c8" stroke="none" d="M 94.050758 113.924873 C 94.050758 114.238991 93.796227 114.493629 93.482239 114.493629 C 93.168243 114.493629 92.913704 114.238991 92.913704 113.924873 C 92.913704 113.610741 93.168243 113.356094 93.482239 113.356094 C 93.796227 113.356094 94.050758 113.610741 94.050758 113.924873 Z"/>
    <path id="path55" fill="#bdf9fb" stroke="none" d="M 98.213203 113.736244 C 98.213203 114.154541 97.874245 114.493629 97.456123 114.493629 C 97.038002 114.493629 96.699059 114.154541 96.699059 113.736244 C 96.699059 113.317947 97.038002 112.978859 97.456123 112.978859 C 97.874245 112.978859 98.213203 113.317947 98.213203 113.736244 Z"/>
    <path id="path56" fill="#97cddc" stroke="none" d="M 101.99855 112.221451 C 101.99855 112.431404 101.828415 112.601616 101.618568 112.601616 C 101.409714 112.601616 100.861488 112.430397 100.861488 112.221451 C 100.861488 112.012527 101.409714 111.844208 101.618568 111.844208 C 101.827301 111.844208 101.996964 112.01265 101.99855 112.221451 Z"/>
    <path id="path57" fill="#85ccca" stroke="none" d="M 104.269753 116.945724 C 104.214851 117.216217 103.977135 117.410599 103.701233 117.410599 C 103.425331 117.410599 103.187599 117.216217 103.132698 116.945724 C 103.132309 116.79496 103.193016 116.650482 103.300941 116.545258 C 103.46701 116.394783 103.704849 116.353424 103.911919 116.439026 C 104.119003 116.524628 104.258301 116.721863 104.269753 116.945724 Z"/>
    <path id="path58" fill="#85ccca" stroke="none" d="M 107.675133 115.631165 C 107.675133 115.839523 107.50631 116.008423 107.298035 116.008423 C 107.089783 116.008423 106.920952 115.839523 106.920952 115.631165 C 106.920952 115.422821 107.089783 115.253922 107.298035 115.253922 C 107.50631 115.253922 107.675133 115.422821 107.675133 115.631165 Z"/>
    <path id="path59" fill="#c0f9fe" stroke="none" d="M 113.351715 113.359001 C 113.351715 113.567345 113.182884 113.736244 112.974617 113.736244 C 112.766357 113.736244 112.597534 113.567345 112.597534 113.359001 C 112.597534 113.150658 112.766357 112.981766 112.974617 112.981766 C 113.182884 112.981766 113.351715 113.150658 113.351715 113.359001 Z"/>
    <path id="path60" fill="#6da7ae" stroke="none" d="M 118.651192 112.221451 C 118.651192 112.42981 118.482368 112.598709 118.274109 112.598709 C 118.065857 112.598709 117.897034 112.42981 117.897034 112.221451 C 117.897034 112.013107 118.065857 111.844208 118.274109 111.844208 C 118.482368 111.844208 118.651192 112.013107 118.651192 112.221451 Z"/>
    <path id="path61" fill="#3c7c7e" stroke="none" d="M 91.022476 101.809525 C 91.022476 102.123642 90.683533 102.378281 90.265411 102.378281 C 89.84729 102.378281 89.508347 102.123642 89.508347 101.809525 C 89.508347 101.495392 89.84729 101.240753 90.265411 101.240753 C 90.683533 101.240753 91.022476 101.495392 91.022476 101.809525 Z"/>
    <path id="path62" fill="#458284" stroke="none" d="M 108.812187 100.114822 C 108.812187 100.532692 108.38868 100.492065 107.863663 100.492065 C 107.338646 100.492065 106.918053 100.532692 106.918053 100.114822 C 106.918053 99.696953 107.341553 99.357437 107.863663 99.357437 C 108.38578 99.357437 108.812187 99.688255 108.812187 100.114822 Z"/>
    <path id="path63" fill="#3a7678" stroke="none" d="M 115.245827 102.755524 C 115.245827 102.963882 114.991295 103.132782 114.677292 103.132782 C 114.363312 103.132782 114.10878 102.963882 114.10878 102.755524 C 114.10878 102.54718 114.363312 102.378281 114.677292 102.378281 C 114.991295 102.378281 115.245827 102.54718 115.245827 102.755524 Z"/>
    <path id="path64" fill="#498b8b" stroke="none" d="M 119.031181 100.483368 C 119.031181 100.691711 118.69223 100.860611 118.274109 100.860611 C 117.855995 100.860611 117.517044 100.691711 117.517044 100.483368 C 117.517044 100.275009 117.855995 100.10611 118.274109 100.10611 C 118.69223 100.10611 119.031181 100.275009 119.031181 100.483368 Z"/>
    <path id="path65" fill="#478687" stroke="none" d="M 119.028275 103.512924 C 119.028275 103.721268 118.859444 103.890167 118.651192 103.890167 C 118.44294 103.890167 118.274109 103.721268 118.274109 103.512924 C 118.274109 103.304565 118.44294 103.135666 118.651192 103.135666 C 118.859444 103.135666 119.028275 103.304565 119.028275 103.512924 Z"/>
    <path id="path66" fill="#bff7fa" stroke="none" d="M 123.947784 104.650459 C 123.947784 105.068756 123.440018 105.407852 122.813637 105.407852 C 122.187248 105.407852 121.679474 105.068756 121.679474 104.650459 C 121.679474 104.232162 122.187248 103.893074 122.813637 103.893074 C 123.440018 103.893074 123.947784 104.232162 123.947784 104.650459 Z"/>
    <path id="path67" fill="#bff7fa" stroke="none" d="M 128.870209 102.56691 C 128.870209 102.881027 128.531235 103.135666 128.113113 103.135666 C 127.695 103.135666 127.356056 102.881027 127.356056 102.56691 C 127.356056 102.252777 127.695 101.998138 128.113113 101.998138 C 128.531235 101.998138 128.870209 102.252777 128.870209 102.56691 Z"/>
    <path id="path68" fill="#bff7fa" stroke="none" d="M 136.438004 104.839088 C 136.438004 105.153206 135.930222 105.407852 135.303848 105.407852 C 134.67746 105.407852 134.169678 105.153206 134.169678 104.839088 C 134.169678 104.524956 134.67746 104.270317 135.303848 104.270317 C 135.930222 104.270317 136.438004 104.524956 136.438004 104.839088 Z"/>
    <path id="path69" fill="#418989" stroke="none" d="M 140.226242 97.645325 C 140.226242 97.959442 139.97171 98.214096 139.657715 98.214096 C 139.343735 98.214096 139.089203 97.959442 139.089203 97.645325 C 139.089203 97.331207 139.343735 97.076569 139.657715 97.076569 C 139.97171 97.076569 140.226242 97.331207 140.226242 97.645325 Z"/>
    <path id="path70" fill="#428a8a" stroke="none" d="M 143.251633 102.94706 C 143.251633 103.261177 142.912674 103.515816 142.494568 103.515816 C 142.076447 103.515816 141.737488 103.261177 141.737488 102.94706 C 141.737488 102.632942 142.076447 102.378281 142.494568 102.378281 C 142.912674 102.378281 143.251633 102.632942 143.251633 102.94706 Z"/>
    <path id="path71" fill="#428a8a" stroke="none" d="M 148.928207 101.998138 C 148.928207 102.206482 148.759384 102.375381 148.551132 102.375381 C 148.342865 102.375381 148.174042 102.206482 148.174042 101.998138 C 148.174042 101.789795 148.342865 101.620895 148.551132 101.620895 C 148.759384 101.620895 148.928207 101.789795 148.928207 101.998138 Z"/>
    <path id="path72" fill="#428a8a" stroke="none" d="M 153.473526 98.591339 C 153.473526 98.799683 153.218994 98.968582 152.905014 98.968582 C 152.591003 98.968582 152.336472 98.799683 152.336472 98.591339 C 152.336472 98.382996 152.591003 98.214096 152.905014 98.214096 C 153.218994 98.214096 153.473526 98.382996 153.473526 98.591339 Z"/>
    <path id="path73" fill="#c1fdff" stroke="none" d="M 162.175476 103.135666 C 162.175476 103.55397 161.413177 103.893074 160.472794 103.893074 C 159.53244 103.893074 158.770126 103.55397 158.770126 103.135666 C 158.770126 102.717392 159.53244 102.378281 160.472794 102.378281 C 161.413177 102.378281 162.175476 102.717392 162.175476 103.135666 Z"/>
    <path id="path74" fill="#80c1c2" stroke="none" d="M 167.0979 103.512924 C 167.0979 103.721268 166.843369 103.890167 166.529358 103.890167 C 166.215378 103.890167 165.960846 103.721268 165.960846 103.512924 C 165.960846 103.304565 166.215378 103.135666 166.529358 103.135666 C 166.843369 103.135666 167.0979 103.304565 167.0979 103.512924 Z"/>
    <path id="path75" fill="#b2eff1" stroke="none" d="M 169.746201 101.052124 C 169.746201 101.365532 169.577957 101.6325 169.36911 101.6325 C 169.160263 101.6325 168.61203 100.999893 168.61203 100.686485 C 168.61203 100.373093 169.160263 100.494965 169.36911 100.494965 C 169.577957 100.494965 169.746201 100.738739 169.746201 101.052124 Z"/>
    <path id="path76" fill="#baf9fa" stroke="none" d="M 175.04567 102.94706 C 175.04567 103.261177 174.706726 103.515816 174.288605 103.515816 C 173.870499 103.515816 173.53154 103.261177 173.53154 102.94706 C 173.53154 102.632942 173.870499 102.378281 174.288605 102.378281 C 174.706726 102.378281 175.04567 102.632942 175.04567 102.94706 Z"/>
    <path id="path77" fill="#baf9fa" stroke="none" d="M 185.644669 102.56691 C 185.644669 102.881027 185.390137 103.135666 185.076141 103.135666 C 184.762161 103.135666 184.507629 102.881027 184.507629 102.56691 C 184.507629 102.252777 184.762161 101.998138 185.076141 101.998138 C 185.390137 101.998138 185.644669 102.252777 185.644669 102.56691 Z"/>
    <path id="path78" fill="#baf9fa" stroke="none" d="M 186.778824 103.135666 C 186.778824 103.344032 186.43988 103.512924 186.021759 103.512924 C 185.603638 103.512924 185.264694 103.344032 185.264694 103.135666 C 185.264694 102.92733 185.603638 102.75843 186.021759 102.75843 C 186.43988 102.75843 186.778824 102.92733 186.778824 103.135666 Z"/>
    <path id="path79" fill="#baf9fa" stroke="none" d="M 192.075409 104.270317 C 192.075409 104.478653 191.906586 104.647552 191.698334 104.647552 C 191.490082 104.647552 191.321259 104.478653 191.321259 104.270317 C 191.321259 104.061974 191.490082 103.893074 191.698334 103.893074 C 191.906586 103.893074 192.075409 104.061974 192.075409 104.270317 Z"/>
    <path id="path80" fill="#baf9fa" stroke="none" d="M 199.646133 102.378281 C 199.646133 102.796158 198.883255 103.135666 197.943436 103.135666 C 197.003616 103.135666 196.240753 102.796158 196.240753 102.378281 C 196.240753 101.960419 197.003616 101.240753 197.943436 101.240753 C 198.883255 101.240753 199.646133 101.960419 199.646133 102.378281 Z"/>
    <path id="path81" fill="#baf9fa" stroke="none" d="M 204.565628 104.270317 C 204.565628 104.478653 204.396805 104.647552 204.188538 104.647552 C 203.980286 104.647552 203.811462 104.478653 203.811462 104.270317 C 203.811462 104.061974 203.980286 103.893074 204.188538 103.893074 C 204.396805 103.893074 204.565628 104.061974 204.565628 104.270317 Z"/>
    <path id="path82" fill="#baf9fa" stroke="none" d="M 201.917328 100.10611 C 201.917328 100.314468 201.832916 100.483368 201.72879 100.483368 C 201.624664 100.483368 201.540253 100.314468 201.540253 100.10611 C 201.540253 99.897766 201.624664 99.728867 201.72879 99.728867 C 201.832916 99.728867 201.917328 99.897766 201.917328 100.10611 Z"/>
    <path id="path83" fill="#81c9c9" stroke="none" d="M 210.245102 102.94706 C 210.245102 103.261177 209.99057 103.515816 209.676575 103.515816 C 209.362595 103.515816 209.108063 103.261177 209.108063 102.94706 C 209.108063 102.632942 209.362595 102.378281 209.676575 102.378281 C 209.99057 102.378281 210.245102 102.632942 210.245102 102.94706 Z"/>
    <path id="path84" fill="#81c9c9" stroke="none" d="M 214.407532 100.86351 C 214.407532 101.071854 214.153 101.240753 213.83902 101.240753 C 213.525024 101.240753 213.270493 101.071854 213.270493 100.86351 C 213.270493 100.655151 213.525024 100.486267 213.83902 100.486267 C 214.153 100.486267 214.407532 100.655151 214.407532 100.86351 Z"/>
    <path id="path85" fill="#a4e1e5" stroke="none" d="M 218.569977 98.779968 C 218.569977 99.094086 218.401154 99.348724 218.192886 99.348724 C 217.984634 99.348724 217.815811 99.094086 217.815811 98.779968 C 217.815811 98.465836 217.984634 98.211189 218.192886 98.211189 C 218.401154 98.211189 218.569977 98.465836 218.569977 98.779968 Z"/>
    <path id="path86" fill="#b9f5fa" stroke="none" d="M 223.492386 102.56691 C 223.492386 102.880325 222.912247 102.755524 222.166794 102.755524 C 221.42131 102.755524 220.841187 102.880325 220.841187 102.56691 C 220.841187 102.25351 221.435837 101.986542 222.166794 101.986542 C 222.897736 101.986542 223.492386 102.25351 223.492386 102.56691 Z"/>
    <path id="path87" fill="#b9f5fa" stroke="none" d="M 233.331406 105.216331 C 233.331406 105.529724 232.359695 105.407852 231.628723 105.407852 C 230.897751 105.407852 230.683105 105.529724 230.683105 105.216331 C 230.683105 104.902924 231.263245 104.635956 232.005798 104.635956 C 232.748383 104.635956 233.331406 104.902924 233.331406 105.216331 Z"/>
    <path id="path88" fill="#b9f1f5" stroke="none" d="M 230.303116 98.779968 C 230.303116 99.094086 230.048599 99.348724 229.734589 99.348724 C 229.420593 99.348724 229.166077 99.094086 229.166077 98.779968 C 229.166077 98.465836 229.420593 98.211189 229.734589 98.211189 C 230.048599 98.211189 230.303116 98.465836 230.303116 98.779968 Z"/>
    <path id="path89" fill="#78bfbe" stroke="none" d="M 236.73967 98.591339 C 236.73967 98.799683 236.485123 98.968582 236.171127 98.968582 C 235.857162 98.968582 235.602615 98.799683 235.602615 98.591339 C 235.602615 98.382996 235.857162 98.214096 236.171127 98.214096 C 236.485123 98.214096 236.73967 98.382996 236.73967 98.591339 Z"/>
    <path id="path90" fill="#caffff" stroke="none" d="M 243.5504 100.86351 C 243.5504 101.072433 243.419846 100.86351 242.793335 100.86351 C 242.166779 100.86351 241.659164 100.692291 241.659164 100.483368 C 241.659164 100.274422 242.166779 100.10611 242.793335 100.10611 C 242.99556 100.101288 243.190933 100.179543 243.333954 100.322632 C 243.477005 100.465744 243.555222 100.661194 243.5504 100.86351 Z"/>
    <path id="path91" fill="#caffff" stroke="none" d="M 245.818695 103.324295 C 245.818695 103.638412 245.310944 103.893074 244.68457 103.893074 C 244.058197 103.893074 243.5504 103.638412 243.5504 103.324295 C 243.5504 103.010185 244.058197 102.755524 244.68457 102.755524 C 245.310944 102.755524 245.818695 103.010185 245.818695 103.324295 Z"/>
    <path id="path92" fill="#93dbd6" stroke="none" d="M 248.847 97.456711 C 248.847 97.665054 248.678177 97.833954 248.469894 97.833954 C 248.261658 97.833954 248.092834 97.665054 248.092834 97.456711 C 248.092834 97.248352 248.261658 97.079453 248.469894 97.079453 C 248.678177 97.079453 248.847 97.248352 248.847 97.456711 Z"/>
    <path id="path93" fill="#93dbd6" stroke="none" d="M 253.769394 98.591339 C 253.769394 98.799683 253.514847 98.968582 253.200882 98.968582 C 252.886871 98.968582 252.632324 98.799683 252.632324 98.591339 C 252.632324 98.382996 252.886871 98.214096 253.200882 98.214096 C 253.514847 98.214096 253.769394 98.382996 253.769394 98.591339 Z"/>
    <path id="path94" fill="#c2feff" stroke="none" d="M 255.660629 104.839088 C 255.660629 105.153206 255.321671 105.407852 254.903564 105.407852 C 254.485428 105.407852 254.1465 105.153206 254.1465 104.839088 C 254.1465 104.524956 254.485428 104.270317 254.903564 104.270317 C 255.321671 104.270317 255.660629 104.524956 255.660629 104.839088 Z"/>
    <path id="path95" fill="#c2feff" stroke="none" d="M 256.040588 104.081688 C 256.040588 104.395821 255.786087 104.650459 255.472076 104.650459 C 255.158081 104.650459 254.903564 104.395821 254.903564 104.081688 C 254.903564 103.76757 255.158081 103.512924 255.472076 103.512924 C 255.786087 103.512924 256.040588 103.76757 256.040588 104.081688 Z"/>
    <path id="path96" fill="#afedee" stroke="none" d="M 263.988403 99.16011 C 263.988403 99.474228 263.649475 99.728867 263.231323 99.728867 C 262.813232 99.728867 262.474243 99.474228 262.474243 99.16011 C 262.474243 98.845978 262.813232 98.591339 263.231323 98.591339 C 263.649475 98.591339 263.988403 98.845978 263.988403 99.16011 Z"/>
    <path id="path97" fill="#afedee" stroke="none" d="M 267.016693 104.650459 C 267.016693 104.858803 266.762146 105.027702 266.448151 105.027702 C 266.134186 105.027702 265.879608 104.858803 265.879608 104.650459 C 265.879608 104.442123 266.134186 104.273224 266.448151 104.273224 C 266.762146 104.273224 267.016693 104.442123 267.016693 104.650459 Z"/>
    <path id="path98" fill="#afedee" stroke="none" d="M 273.450317 101.052124 C 273.450317 101.366257 273.281494 101.620895 273.073242 101.620895 C 272.86499 101.620895 272.696167 101.366257 272.696167 101.052124 C 272.696167 100.738007 272.86499 100.483368 273.073242 100.483368 C 273.281494 100.483368 273.450317 100.738007 273.450317 101.052124 Z"/>
    <path id="path99" fill="#afedee" stroke="none" d="M 268.527924 97.076569 C 268.527924 97.284904 268.3591 97.453804 268.150818 97.453804 C 267.942596 97.453804 267.773743 97.284904 267.773743 97.076569 C 267.773743 96.868202 267.942596 96.69931 268.150818 96.69931 C 268.3591 96.69931 268.527924 96.868202 268.527924 97.076569 Z"/>
    <path id="path100" fill="#afedee" stroke="none" d="M 273.830322 95.561775 C 273.830322 95.770111 273.575775 95.939011 273.26178 95.939011 C 272.947815 95.939011 272.693237 95.770111 272.693237 95.561775 C 272.693237 95.353432 272.947815 95.184532 273.26178 95.184532 C 273.575775 95.184532 273.830322 95.353432 273.830322 95.561775 Z"/>
    <path id="path101" fill="#afedee" stroke="none" d="M 280.643951 103.893074 C 280.643951 104.101418 280.389404 104.270317 280.075439 104.270317 C 279.761444 104.270317 279.506897 104.101418 279.506897 103.893074 C 279.506897 103.684715 279.761444 103.515816 280.075439 103.515816 C 280.389404 103.515816 280.643951 103.684715 280.643951 103.893074 Z"/>
    <path id="path102" fill="#afedee" stroke="none" d="M 281.021027 98.968582 C 281.021027 99.386871 280.682098 99.725967 280.263947 99.725967 C 279.845856 99.725967 279.506897 99.386871 279.506897 98.968582 C 279.506897 98.550278 279.845856 98.211189 280.263947 98.211189 C 280.682098 98.211189 281.021027 98.550278 281.021027 98.968582 Z"/>
    <path id="path103" fill="#afedee" stroke="none" d="M 287.831787 101.432266 C 287.831787 101.752815 287.572021 102.01265 287.251648 102.01265 C 286.938354 102.01265 286.303131 101.760178 286.303131 101.432266 C 286.303131 101.104355 286.938354 100.851898 287.251648 100.851898 C 287.572021 100.851898 287.831787 101.11174 287.831787 101.432266 Z"/>
    <path id="path104" fill="#bafafb" stroke="none" d="M 286.317596 95.561775 C 286.317596 95.770721 286.065247 96.31916 285.751984 96.31916 C 285.438751 96.31916 285.171875 95.770721 285.171875 95.561775 C 285.171875 95.352844 285.427124 95.184532 285.751984 95.184532 C 286.076874 95.184532 286.317596 95.352844 286.317596 95.561775 Z"/>
    <path id="path105" fill="#c4fcff" stroke="none" d="M 294.268311 96.31916 C 294.268311 96.528107 293.844818 96.31916 293.319794 96.31916 C 292.7948 96.31916 292.374176 96.150864 292.374176 95.941917 C 292.374176 95.732994 292.797699 95.561775 293.319794 95.561775 C 293.762634 95.592377 294.14032 95.893951 294.268311 96.31916 Z"/>
    <path id="path106" fill="#c4fcff" stroke="none" d="M 301.087738 98.968582 C 301.087738 99.180428 300.664246 99.348724 300.14212 99.348724 C 299.619995 99.348724 299.196503 99.180428 299.196503 98.968582 C 299.196503 98.756744 299.240021 98.591339 299.776642 98.591339 C 300.313263 98.591339 301.087738 98.759651 301.087738 98.968582 Z"/>
    <path id="path107" fill="#d4ffff" stroke="none" d="M 307.89267 98.591339 C 307.89267 98.799683 307.638153 98.968582 307.324158 98.968582 C 307.010132 98.968582 306.755646 98.799683 306.755646 98.591339 C 306.755646 98.382996 307.010132 98.214096 307.324158 98.214096 C 307.638153 98.214096 307.89267 98.382996 307.89267 98.591339 Z"/>
    <path id="path108" fill="#bdeff0" stroke="none" d="M 323.788269 97.456711 C 323.788269 97.87458 323.657745 98.211189 323.031189 98.211189 C 322.404633 98.211189 321.897034 97.87458 321.897034 97.456711 C 321.897034 97.038834 322.404633 96.69931 323.031189 96.69931 C 323.657745 96.69931 323.788269 97.035934 323.788269 97.456711 Z"/>
    <path id="path109" fill="#91ccce" stroke="none" d="M 316.597534 98.02256 C 316.597534 98.335968 316.638153 98.602936 316.220459 98.602936 C 315.802765 98.602936 315.463409 98.347572 315.463409 98.02256 C 315.463409 97.697556 315.799835 97.456711 316.220459 97.456711 C 316.641052 97.456711 316.597534 97.709167 316.597534 98.02256 Z"/>
    <path id="path110" fill="#91ccce" stroke="none" d="M 314.706299 94.427147 C 314.706299 94.63549 314.451782 94.804382 314.137787 94.804382 C 313.823792 94.804382 313.569275 94.63549 313.569275 94.427147 C 313.569275 94.218788 313.823792 94.049889 314.137787 94.049889 C 314.451782 94.049889 314.706299 94.218788 314.706299 94.427147 Z"/>
    <path id="path111" fill="#6b9f9d" stroke="none" d="M 333.630157 98.779968 C 333.630157 99.093353 333.667847 99.360336 333.250183 99.360336 C 332.832458 99.360336 332.493103 99.104973 332.493103 98.779968 C 332.493103 98.454956 332.832458 98.199585 333.250183 98.199585 C 333.667847 98.199585 333.630157 98.466553 333.630157 98.779968 Z"/>
    <path id="path112" fill="#84aeac" stroke="none" d="M 339.306732 95.750404 C 339.306732 96.064514 339.052185 96.31916 338.73822 96.31916 C 338.424225 96.31916 338.169678 96.064514 338.169678 95.750404 C 338.169678 95.436264 338.424225 95.181625 338.73822 95.181625 C 339.052185 95.181625 339.306732 95.436264 339.306732 95.750404 Z"/>
    <path id="path113" fill="#a4c5c0" stroke="none" d="M 346.877441 97.076569 C 346.877441 97.284904 346.538483 97.453804 346.120392 97.453804 C 345.702271 97.453804 345.363312 97.284904 345.363312 97.076569 C 345.363312 96.868202 345.702271 96.69931 346.120392 96.69931 C 346.538483 96.69931 346.877441 96.868202 346.877441 97.076569 Z"/>
    <linearGradient id="linearGradient3" x1="275.759246" y1="104.458935" x2="364.287165" y2="104.458935" gradientUnits="userSpaceOnUse">
        <stop offset="0.69" stop-color="#c7e5e0" stop-opacity="1"/>
        <stop offset="0.73" stop-color="#cbe7e2" stop-opacity="0.92"/>
        <stop offset="0.8" stop-color="#d7ece9" stop-opacity="0.71"/>
        <stop offset="0.89" stop-color="#eaf5f3" stop-opacity="0.38"/>
        <stop offset="1" stop-color="#ffffff" stop-opacity="0"/>
    </linearGradient>
    <path id="path114" fill="url(#linearGradient3)" stroke="none" d="M 350.659912 101.620895 L 333.409729 102.378281 L 316.585938 102.378281 C 307.124023 102.378281 294.349548 105.027702 294.349548 105.027702 L 275.74765 106.440918 L 275.74765 106.440918 C 275.74765 106.440918 313.609863 108.434502 325.618561 106.922638 C 337.627258 105.410751 364.275543 105.027702 364.275543 105.027702 L 364.275543 102.378281 C 356.339355 100.86351 350.659912 101.620895 350.659912 101.620895 Z"/>
    <path id="path115" fill="#aac1c0" stroke="none" d="M 317.731689 106.542496 C 317.731689 106.960358 317.772308 107.299881 317.354584 107.299881 C 316.936493 107.299881 316.597534 106.960785 316.597534 106.542496 C 316.597534 106.124191 316.936493 105.785088 317.354584 105.785088 C 317.772308 105.785088 317.731689 106.124619 317.731689 106.542496 Z"/>
    <path id="path116" fill="#aac1c0" stroke="none" d="M 314.326324 105.785088 C 314.326324 105.993446 313.987366 106.162346 313.569275 106.162346 C 313.151123 106.162346 312.812195 105.993446 312.812195 105.785088 C 312.812195 105.576744 313.151123 105.407852 313.569275 105.407852 C 313.987366 105.407852 314.326324 105.576744 314.326324 105.785088 Z"/>
    <path id="path117" fill="#aac1c0" stroke="none" d="M 299.184906 105.027702 C 299.184906 105.236038 299.016083 105.404938 298.807831 105.404938 C 298.599579 105.404938 298.430725 105.236038 298.430725 105.027702 C 298.430725 104.819359 298.599579 104.650459 298.807831 104.650459 C 299.016083 104.650459 299.184906 104.819359 299.184906 105.027702 Z"/>
    <path id="path118" fill="#c6f1e7" stroke="none" d="M 151.959396 89.502647 C 151.959396 89.920944 151.620453 90.26004 151.202332 90.26004 C 150.78421 90.26004 150.445236 89.920944 150.445236 89.502647 C 150.445236 89.084351 150.78421 88.745262 151.202332 88.745262 C 151.620453 88.745262 151.959396 89.084351 151.959396 89.502647 Z"/>
    <path id="path119" fill="#c6f1e7" stroke="none" d="M 145.525742 88.556633 C 145.525742 89.079109 144.932251 89.502647 144.20015 89.502647 C 143.468048 89.502647 142.874542 89.079109 142.874542 88.556633 C 142.874542 88.03418 143.468048 87.610619 144.20015 87.610619 C 144.932251 87.610619 145.525742 88.03418 145.525742 88.556633 Z"/>
    <path id="path120" fill="#c6f1e7" stroke="none" d="M 149.308197 85.527069 C 149.308197 85.841202 148.884827 86.095848 148.362579 86.095848 C 147.840332 86.095848 147.416962 85.841202 147.416962 85.527069 C 147.416962 85.212952 147.840332 84.958313 148.362579 84.958313 C 148.884827 84.958313 149.308197 85.212952 149.308197 85.527069 Z"/>
    <path id="path121" fill="#c6f1e7" stroke="none" d="M 138.332138 85.718605 C 138.332138 86.136902 137.908752 86.47599 137.38652 86.47599 C 136.864258 86.47599 136.440903 86.136902 136.440903 85.718605 C 136.440903 85.300308 136.864258 84.96122 137.38652 84.96122 C 137.908752 84.96122 138.332138 85.300308 138.332138 85.718605 Z"/>
    <path id="path122" fill="#c6f1e7" stroke="none" d="M 139.089203 90.640182 C 139.089203 91.058472 138.665833 91.397583 138.143585 91.397583 C 137.621323 91.397583 137.197968 91.058472 137.197968 90.640182 C 137.197968 90.221886 137.621323 89.882797 138.143585 89.882797 C 138.665833 89.882797 139.089203 90.221886 139.089203 90.640182 Z"/>
    <path id="path123" fill="#c6f1e7" stroke="none" d="M 133.789703 90.26004 C 133.789703 90.468399 133.45076 90.637299 133.032639 90.637299 C 132.614517 90.637299 132.275574 90.468399 132.275574 90.26004 C 132.275574 90.051697 132.614517 89.882797 133.032639 89.882797 C 133.45076 89.882797 133.789703 90.051697 133.789703 90.26004 Z"/>
    <path id="path124" fill="#c6f1e7" stroke="none" d="M 130.384338 86.47599 C 130.384338 86.894287 129.960983 87.233383 129.438721 87.233383 C 128.916489 87.233383 128.493103 86.894287 128.493103 86.47599 C 128.493103 86.057693 128.916489 85.718605 129.438721 85.718605 C 129.960983 85.718605 130.384338 86.057693 130.384338 86.47599 Z"/>
    <path id="path125" fill="#e2f6f7" stroke="none" d="M 126.221909 90.451569 C 126.221909 90.97403 125.543999 91.397583 124.707756 91.397583 C 123.871521 91.397583 123.193626 90.97403 123.193626 90.451569 C 123.193626 89.929092 123.871521 89.505554 124.707756 89.505554 C 125.543999 89.505554 126.221909 89.929092 126.221909 90.451569 Z"/>
    <path id="path126" fill="#c3f0e3" stroke="none" d="M 120.165344 87.48584 C 120.165344 87.834068 119.741844 88.115555 119.219727 88.115555 C 118.697617 88.115555 118.639595 87.825371 118.639595 87.48584 C 118.639595 87.146324 118.685997 86.853233 119.219727 86.853233 C 119.753441 86.853233 120.165344 87.13472 120.165344 87.48584 Z"/>
    <path id="path127" fill="#c9f2e9" stroke="none" d="M 116.002899 91.397583 C 116.002899 91.605927 115.74836 91.774826 115.43438 91.774826 C 115.120377 91.774826 114.865845 91.605927 114.865845 91.397583 C 114.865845 91.189224 115.120377 91.020325 115.43438 91.020325 C 115.74836 91.020325 116.002899 91.189224 116.002899 91.397583 Z"/>
    <path id="path128" fill="#c9f2e9" stroke="none" d="M 125.084839 85.338455 C 125.084839 85.75676 124.661476 86.095848 124.139221 86.095848 C 123.616982 86.095848 123.193626 85.75676 123.193626 85.338455 C 123.193626 84.920166 123.616982 84.581055 124.139221 84.581055 C 124.661476 84.581055 125.084839 84.920166 125.084839 85.338455 Z"/>
    <path id="path129" fill="#c9f2e9" stroke="none" d="M 116.757072 85.718605 C 116.757072 85.926949 116.333702 86.095848 115.811462 86.095848 C 115.289207 86.095848 114.865845 85.926949 114.865845 85.718605 C 114.865845 85.510262 115.289207 85.34137 115.811462 85.34137 C 116.333702 85.34137 116.757072 85.510262 116.757072 85.718605 Z"/>
    <path id="path130" fill="#c9f2e9" stroke="none" d="M 109.946335 87.799248 C 109.946335 88.321724 109.43856 88.745262 108.812187 88.745262 C 108.185814 88.745262 107.678017 88.321724 107.678017 87.799248 C 107.678017 87.276772 108.185814 86.853233 108.812187 86.853233 C 109.43856 86.853233 109.946335 87.276772 109.946335 87.799248 Z"/>
    <path id="path131" fill="#c9f2e9" stroke="none" d="M 109.189262 91.017441 C 109.189262 91.225784 108.934731 91.394684 108.620728 91.394684 C 108.306747 91.394684 108.052216 91.225784 108.052216 91.017441 C 108.052216 90.809082 108.306747 90.640182 108.620728 90.640182 C 108.934731 90.640182 109.189262 90.809082 109.189262 91.017441 Z"/>
    <path id="path132" fill="#c9f2e9" stroke="none" d="M 104.649757 87.799248 C 104.649757 88.113365 104.395203 88.368027 104.081223 88.368027 C 103.767235 88.368027 103.512688 88.113365 103.512688 87.799248 C 103.512688 87.48513 103.767235 87.230469 104.081223 87.230469 C 104.395203 87.230469 104.649757 87.48513 104.649757 87.799248 Z"/>
    <path id="path133" fill="#dbfffb" stroke="none" d="M 103.512688 92.154968 C 103.512688 92.573273 102.919205 92.912354 102.187088 92.912354 C 101.454979 92.912354 100.861488 92.573273 100.861488 92.154968 C 100.861488 91.736679 101.454979 91.397583 102.187088 91.397583 C 102.919205 91.397583 103.512688 91.736679 103.512688 92.154968 Z"/>
    <path id="path134" fill="#dbfffb" stroke="none" d="M 98.970268 89.694183 C 98.970268 89.79834 98.715721 89.882797 98.401741 89.882797 C 98.087753 89.882797 97.833221 89.79834 97.833221 89.694183 C 97.833221 89.590004 98.087753 89.505554 98.401741 89.505554 C 98.715721 89.505554 98.970268 89.590004 98.970268 89.694183 Z"/>
    <path id="path135" fill="#dbfffb" stroke="none" d="M 95.184921 93.858368 C 95.184921 94.172485 94.845963 94.427147 94.427841 94.427147 C 94.00972 94.427147 93.670776 94.172485 93.670776 93.858368 C 93.670776 93.54425 94.00972 93.289597 94.427841 93.289597 C 94.845963 93.289597 95.184921 93.54425 95.184921 93.858368 Z"/>
    <path id="path136" fill="#dbfffb" stroke="none" d="M 66.042061 91.208954 C 66.042061 91.523071 65.787521 91.777725 65.473534 91.777725 C 65.159538 91.777725 64.905006 91.523071 64.905006 91.208954 C 64.905006 90.894836 65.159538 90.640182 65.473534 90.640182 C 65.787521 90.640182 66.042061 90.894836 66.042061 91.208954 Z"/>
    <path id="path137" fill="#dbfffb" stroke="none" d="M 59.985493 89.502647 C 59.985493 89.920944 59.646545 90.26004 59.228428 90.26004 C 58.810307 90.26004 58.471352 89.920944 58.471352 89.502647 C 58.471352 89.084351 58.810307 88.745262 59.228428 88.745262 C 59.646545 88.745262 59.985493 89.084351 59.985493 89.502647 Z"/>
    <path id="path138" fill="#dbfffb" stroke="none" d="M 52.794781 87.610619 C 52.794781 88.237274 52.116871 88.745262 51.28064 88.745262 C 50.444401 88.745262 49.766499 88.237274 49.766499 87.610619 C 49.766499 86.983978 50.444401 86.47599 51.28064 86.47599 C 52.116871 86.47599 52.794781 86.983978 52.794781 87.610619 Z"/>
    <path id="path139" fill="#dbfffb" stroke="none" d="M 47.118202 83.823669 C 47.118202 84.241966 46.61042 84.581055 45.984047 84.581055 C 45.357674 84.581055 44.849892 84.241966 44.849892 83.823669 C 44.849892 83.405373 45.357674 83.066284 45.984047 83.066284 C 46.61042 83.066284 47.118202 83.405373 47.118202 83.823669 Z"/>
    <path id="path140" fill="#dbfffb" stroke="none" d="M 41.818714 83.446426 C 41.818714 83.864731 41.479759 84.203812 41.061638 84.203812 C 40.64352 84.203812 40.304573 83.864731 40.304573 83.446426 C 40.304573 83.028137 40.64352 82.689041 41.061638 82.689041 C 41.479759 82.689041 41.818714 83.028137 41.818714 83.446426 Z"/>
    <path id="path141" fill="#dbfffb" stroke="none" d="M 44.08992 88.368027 C 44.08992 88.786316 43.66655 89.125412 43.144306 89.125412 C 42.622059 89.125412 42.198696 88.786316 42.198696 88.368027 C 42.198696 87.949722 42.622059 87.610619 43.144306 87.610619 C 43.66655 87.610619 44.08992 87.949722 44.08992 88.368027 Z"/>
    <path id="path142" fill="#dbfffb" stroke="none" d="M 36.142136 85.527069 C 36.142136 85.841202 35.718765 86.095848 35.196518 86.095848 C 34.674271 86.095848 34.250904 85.841202 34.250904 85.527069 C 34.250904 85.212952 34.674271 84.958313 35.196518 84.958313 C 35.718765 84.958313 36.142136 85.212952 36.142136 85.527069 Z"/>
    <path id="path143" fill="#dbfffb" stroke="none" d="M 32.356777 82.689041 C 32.356777 83.107338 32.01783 83.446426 31.59971 83.446426 C 31.181591 83.446426 30.842636 83.107338 30.842636 82.689041 C 30.842636 82.270752 31.181591 81.931656 31.59971 81.931656 C 32.01783 81.931656 32.356777 82.270752 32.356777 82.689041 Z"/>
    <path id="path144" fill="#bfebdd" stroke="none" d="M 56.580132 84.581055 C 56.580132 84.999352 56.241173 85.338455 55.823063 85.338455 C 55.404945 85.338455 55.06599 84.999352 55.06599 84.581055 C 55.06599 84.162781 55.404945 83.823669 55.823063 83.823669 C 56.241173 83.823669 56.580132 84.162781 56.580132 84.581055 Z"/>
    <path id="path145" fill="#bdf5e4" stroke="none" d="M 180.34227 87.422012 C 180.34227 87.944466 180.173447 88.368027 179.965195 88.368027 C 179.756943 88.368027 179.588104 87.944466 179.588104 87.422012 C 179.588104 86.899536 179.756943 86.47599 179.965195 86.47599 C 180.173447 86.47599 180.34227 86.899536 180.34227 87.422012 Z"/>
    <path id="path146" fill="#d2fff6" stroke="none" d="M 185.134247 89.372986 C 185.218124 89.700569 184.767822 90.098969 184.128448 90.262833 C 183.48909 90.426712 182.902771 90.294006 182.818893 89.966415 C 182.734985 89.63884 183.185272 89.240448 183.824661 89.076569 C 184.464035 88.912689 185.050339 89.045395 185.134247 89.372986 Z"/>
    <path id="path147" fill="#d2fff6" stroke="none" d="M 185.264694 87.041862 C 185.264694 87.355972 185.010132 87.610619 184.696152 87.610619 C 184.382172 87.610619 184.12764 87.355972 184.12764 87.041862 C 184.12764 86.727722 184.382172 86.473083 184.696152 86.473083 C 185.010132 86.473083 185.264694 86.727722 185.264694 87.041862 Z"/>
    <path id="path148" fill="#d7fff9" stroke="none" d="M 189.807098 87.041862 C 189.807098 87.355972 189.468155 87.610619 189.050034 87.610619 C 188.631912 87.610619 188.292969 87.355972 188.292969 87.041862 C 188.292969 86.727722 188.631912 86.473083 189.050034 86.473083 C 189.468155 86.473083 189.807098 86.727722 189.807098 87.041862 Z"/>
    <path id="path149" fill="#d7fff9" stroke="none" d="M 199.646133 88.179398 C 199.646133 88.493515 199.391571 88.748169 199.077591 88.748169 C 198.763611 88.748169 198.509064 88.493515 198.509064 88.179398 C 198.509064 87.86528 198.763611 87.610619 199.077591 87.610619 C 199.391571 87.610619 199.646133 87.86528 199.646133 88.179398 Z"/>
    <path id="path150" fill="#d7fff9" stroke="none" d="M 205.322693 90.451569 C 205.322693 90.765686 204.983749 91.020325 204.565628 91.020325 C 204.147507 91.020325 203.808563 90.765686 203.808563 90.451569 C 203.808563 90.137436 204.147507 89.882797 204.565628 89.882797 C 204.983749 89.882797 205.322693 90.137436 205.322693 90.451569 Z"/>
    <path id="path151" fill="#cdf4eb" stroke="none" d="M 213.631912 89.216614 C 213.714554 89.626656 213.199753 90.076416 212.482101 90.221184 C 211.76445 90.365952 211.115662 90.150909 211.03302 89.740875 C 210.950378 89.330818 211.465149 88.881065 212.182831 88.736298 C 212.900482 88.591537 213.549255 88.806572 213.631912 89.216614 Z"/>
    <path id="path152" fill="#cdf4eb" stroke="none" d="M 208.350967 86.47599 C 208.350967 86.684334 208.012024 86.853233 207.593903 86.853233 C 207.175781 86.853233 206.836838 86.684334 206.836838 86.47599 C 206.836838 86.267654 207.175781 86.098755 207.593903 86.098755 C 208.012024 86.098755 208.350967 86.267654 208.350967 86.47599 Z"/>
    <path id="path153" fill="#d1fff4" stroke="none" d="M 217.815811 84.769684 C 217.815811 85.083801 217.561264 85.338455 217.247284 85.338455 C 216.933289 85.338455 216.678757 85.083801 216.678757 84.769684 C 216.678757 84.455566 216.933289 84.200912 217.247284 84.200912 C 217.561264 84.200912 217.815811 84.455566 217.815811 84.769684 Z"/>
    <path id="path154" fill="#d1fff4" stroke="none" d="M 220.841187 89.502647 C 220.841187 89.710991 220.502258 89.87989 220.084122 89.87989 C 219.666016 89.87989 219.327057 89.710991 219.327057 89.502647 C 219.327057 89.294312 219.666016 89.125412 220.084122 89.125412 C 220.502258 89.125412 220.841187 89.294312 220.841187 89.502647 Z"/>
    <path id="path155" fill="#d1fff4" stroke="none" d="M 225.760712 88.556633 C 225.760712 88.870773 225.421753 89.125412 225.003616 89.125412 C 224.58551 89.125412 224.246552 88.870773 224.246552 88.556633 C 224.246552 88.242523 224.58551 87.987877 225.003616 87.987877 C 225.421753 87.987877 225.760712 88.242523 225.760712 88.556633 Z"/>
    <path id="path156" fill="#d1fff4" stroke="none" d="M 231.060181 84.769684 C 231.060181 85.083801 230.891342 85.338455 230.683105 85.338455 C 230.474838 85.338455 230.306015 85.083801 230.306015 84.769684 C 230.306015 84.455566 230.474838 84.200912 230.683105 84.200912 C 230.891342 84.200912 231.060181 84.455566 231.060181 84.769684 Z"/>
    <path id="path157" fill="#d1fff4" stroke="none" d="M 234.08847 87.987877 C 234.08847 88.406174 233.919647 88.745262 233.71138 88.745262 C 233.503143 88.745262 233.33432 88.406174 233.33432 87.987877 C 233.33432 87.56958 233.503143 87.230469 233.71138 87.230469 C 233.919647 87.230469 234.08847 87.56958 234.08847 87.987877 Z"/>
    <path id="path158" fill="#d1fff4" stroke="none" d="M 239.767944 85.338455 C 239.767944 85.75676 239.513428 86.095848 239.199417 86.095848 C 238.885422 86.095848 238.630905 85.75676 238.630905 85.338455 C 238.630905 84.920166 238.885422 84.581055 239.199417 84.581055 C 239.513428 84.581055 239.767944 84.920166 239.767944 85.338455 Z"/>
    <path id="path159" fill="#d1fff4" stroke="none" d="M 246.955765 85.907211 C 246.955765 86.429695 246.616806 86.853233 246.1987 86.853233 C 245.780563 86.853233 245.441635 86.429695 245.441635 85.907211 C 245.441635 85.384758 245.780563 84.96122 246.1987 84.96122 C 246.616806 84.96122 246.955765 85.384758 246.955765 85.907211 Z"/>
    <path id="path160" fill="#d1fff4" stroke="none" d="M 255.660629 85.718605 C 255.660629 85.926949 255.491806 86.095848 255.283524 86.095848 C 255.075287 86.095848 254.906464 85.926949 254.906464 85.718605 C 254.906464 85.510262 255.075287 85.34137 255.283524 85.34137 C 255.491806 85.34137 255.660629 85.510262 255.660629 85.718605 Z"/>
    <path id="path161" fill="#bff6e6" stroke="none" d="M 271.936188 85.149826 C 271.936188 85.463943 271.597229 85.718605 271.179108 85.718605 C 270.760986 85.718605 270.422058 85.463943 270.422058 85.149826 C 270.422058 84.835716 270.760986 84.581055 271.179108 84.581055 C 271.597229 84.581055 271.936188 84.835716 271.936188 85.149826 Z"/>
    <path id="path162" fill="#bff6e6" stroke="none" d="M 279.506897 83.446426 C 279.506897 83.65477 279.167938 83.823669 278.749817 83.823669 C 278.331726 83.823669 277.992737 83.65477 277.992737 83.446426 C 277.992737 83.238083 278.331726 83.069183 278.749817 83.069183 C 279.167938 83.069183 279.506897 83.238083 279.506897 83.446426 Z"/>
    <path id="path163" fill="#bff6e6" stroke="none" d="M 286.320526 84.203812 C 286.320526 84.41217 286.06601 84.581055 285.751984 84.581055 C 285.437988 84.581055 285.183472 84.41217 285.183472 84.203812 C 285.183472 83.995468 285.437988 83.826576 285.751984 83.826576 C 286.06601 83.826576 286.320526 83.995468 286.320526 84.203812 Z"/>
    <path id="path164" fill="#bff6e6" stroke="none" d="M 294.645416 85.527069 C 294.645416 85.841202 294.390869 86.095848 294.076843 86.095848 C 293.762878 86.095848 293.508331 85.841202 293.508331 85.527069 C 293.508331 85.212952 293.762878 84.958313 294.076843 84.958313 C 294.390869 84.958313 294.645416 85.212952 294.645416 85.527069 Z"/>
    <path id="path165" fill="#bff6e6" stroke="none" d="M 304.10733 84.392441 C 304.10733 84.706558 303.852783 84.96122 303.538788 84.96122 C 303.224823 84.96122 302.970276 84.706558 302.970276 84.392441 C 302.970276 84.078323 303.224823 83.823669 303.538788 83.823669 C 303.852783 83.823669 304.10733 84.078323 304.10733 84.392441 Z"/>
    <path id="path166" fill="#bff6e6" stroke="none" d="M 313.569275 84.769684 C 313.569275 85.29216 313.145874 85.715698 312.623657 85.715698 C 312.10141 85.715698 311.67804 85.29216 311.67804 84.769684 C 311.67804 84.247223 312.10141 83.823669 312.623657 83.823669 C 313.145874 83.823669 313.569275 84.247223 313.569275 84.769684 Z"/>
    <path id="path167" fill="#deffff" stroke="none" d="M 318.868774 86.664619 C 318.868774 86.978737 318.529785 87.233383 318.111664 87.233383 C 317.693542 87.233383 317.354584 86.978737 317.354584 86.664619 C 317.354584 86.350487 317.693542 86.095848 318.111664 86.095848 C 318.529785 86.095848 318.868774 86.350487 318.868774 86.664619 Z"/>
    <path id="path168" fill="#61787b" stroke="none" d="M 323.031189 84.769684 C 323.031189 85.083801 322.862366 85.338455 322.654083 85.338455 C 322.445862 85.338455 322.277039 85.083801 322.277039 84.769684 C 322.277039 84.455566 322.445862 84.200912 322.654083 84.200912 C 322.862366 84.200912 323.031189 84.455566 323.031189 84.769684 Z"/>
    <path id="path169" fill="#61787b" stroke="none" d="M 332.496033 86.853233 C 332.496033 87.061569 332.241455 87.230469 331.92746 87.230469 C 331.613495 87.230469 331.358948 87.061569 331.358948 86.853233 C 331.358948 86.64489 331.613495 86.47599 331.92746 86.47599 C 332.241455 86.47599 332.496033 86.64489 332.496033 86.853233 Z"/>
    <path id="path170" fill="#61787b" stroke="none" d="M 337.412598 84.392441 C 337.412598 84.706558 337.243774 84.96122 337.035553 84.96122 C 336.827271 84.96122 336.658447 84.706558 336.658447 84.392441 C 336.658447 84.078323 336.827271 83.823669 337.035553 83.823669 C 337.243774 83.823669 337.412598 84.078323 337.412598 84.392441 Z"/>
    <path id="path171" fill="#61787b" stroke="none" d="M 341.200867 86.095848 C 341.200867 86.304184 340.94632 86.473083 340.632324 86.473083 C 340.318359 86.473083 340.063812 86.304184 340.063812 86.095848 C 340.063812 85.887505 340.318359 85.718605 340.632324 85.718605 C 340.94632 85.718605 341.200867 85.887505 341.200867 86.095848 Z"/>
    <path id="path172" fill="#ceefee" stroke="none" d="M 330.981903 86.47599 C 330.981903 86.684334 330.727325 86.853233 330.41333 86.853233 C 330.099365 86.853233 329.844818 86.684334 329.844818 86.47599 C 329.844818 86.267654 330.099365 86.098755 330.41333 86.098755 C 330.727325 86.098755 330.981903 86.267654 330.981903 86.47599 Z"/>
    <linearGradient id="linearGradient4" x1="95.02248" y1="68.292818" x2="408.388687" y2="68.292818" gradientUnits="userSpaceOnUse">
        <stop offset="0.76" stop-color="#165a5b" stop-opacity="1"/>
        <stop offset="0.82" stop-color="#1f6061" stop-opacity="0.96"/>
        <stop offset="0.86" stop-color="#3a7475" stop-opacity="0.84"/>
        <stop offset="0.91" stop-color="#699595" stop-opacity="0.65"/>
        <stop offset="0.95" stop-color="#a9c2c3" stop-opacity="0.37"/>
        <stop offset="1" stop-color="#fcfdfd" stop-opacity="0.01"/>
        <stop offset="1" stop-color="#ffffff" stop-opacity="0"/>
    </linearGradient>
    <path id="path173" fill="url(#linearGradient4)" stroke="none" d="M 83.147217 96.130547 C 83.074348 96.130508 83.001595 96.124687 82.929665 96.113136 C 82.208046 95.993103 81.719193 95.312057 81.836113 94.589653 C 81.836113 94.554825 82.445244 90.878136 83.228424 87.178238 C 84.820877 79.647858 85.650482 78.777298 86.572884 78.423279 C 87.024979 78.243645 87.533234 78.272308 87.962288 78.501633 C 88.994926 79.041382 89.348808 80.495224 89.888329 82.700645 C 90.178398 83.884613 90.758522 86.290268 91.306755 86.832916 C 91.886887 86.499207 92.408997 83.989075 92.591736 83.133026 C 93.038437 81.026253 93.39521 79.36058 94.793327 78.928207 C 96.191444 78.495819 97.421318 79.412811 98.387238 80.161499 C 98.770126 80.451691 99.564903 81.069794 99.802757 81.032059 C 100.519211 80.86956 102.042053 79.354782 103.013779 78.040222 C 103.258652 77.712173 103.640213 77.514374 104.049316 77.503387 C 104.310364 77.503387 130.187088 76.923012 134.538071 76.545769 C 136.858597 76.351334 139.048584 70.994476 140.104431 68.420509 C 141.00943 66.209259 141.383606 65.295181 142.494568 65.295181 C 143.753448 65.295181 144.040619 66.165741 145.633072 70.948036 C 146.282806 72.9039 147.373459 76.209137 148.156647 77.787766 C 149.316895 75.039696 150.813629 65.382233 152.162445 56.746239 C 152.264877 56.102417 152.818985 55.627975 153.470642 55.626114 L 153.470642 55.626114 C 154.122238 55.62532 154.677368 56.099388 154.778824 56.743355 C 156.266861 66.029343 158.094284 76.084366 159.254547 80.913094 C 160.153732 76.850464 161.720093 66.743217 163.85788 41.682594 C 163.921799 41.00119 164.493546 40.480362 165.177673 40.480362 C 165.861771 40.480362 166.433533 41.00119 166.497467 41.682594 C 167.886871 56.624367 170.355331 79.746536 171.886887 87.50325 C 172.875992 83.182365 173.807114 73.928268 174.41333 67.892365 C 174.848434 63.562752 175.260345 59.476898 175.680923 56.432831 C 176.313278 51.859467 176.777374 50.338882 178.291504 50.338882 C 179.805664 50.338882 180.391602 52.051003 181.067429 55.890182 C 181.543152 58.594749 182.007248 62.233704 182.456863 65.756569 C 182.964478 69.720543 183.617126 74.798836 184.19725 77.456947 C 184.934006 75.527206 185.827408 72.2771 186.43074 70.086182 C 188.440903 62.782143 189.102249 60.692802 190.964462 61.020721 C 192.525009 61.296379 193.018127 63.208725 194.619293 71.992722 C 194.993469 74.041451 195.489487 76.766296 195.933273 78.667038 C 196.400299 77.236404 196.922409 75.34729 197.325607 73.899239 C 199.153015 67.285866 199.814362 65.193604 201.531555 65.193604 C 203.248734 65.193604 203.82016 67.358414 204.939819 71.670601 C 205.415512 73.501686 206.262512 76.766296 206.915161 77.764542 C 207.5504 77.335068 208.455414 75.965393 209.026825 75.094833 C 210.166779 73.353706 211.153015 71.870827 212.623642 71.792488 C 213.83902 71.725739 215.115295 72.436699 216.461197 73.194084 C 217.47934 73.77446 218.63089 74.409973 219.324142 74.41288 L 392.342285 77.149353 C 393.073242 77.149353 395.173309 77.00135 395.173309 77.471451 C 395.173309 77.941574 393.064545 77.906738 392.336456 77.906738 L 393.844818 77.906738 L 219.312531 77.062294 C 217.931839 77.062294 216.525009 76.267181 215.167511 75.503983 C 214.390137 75.06871 213.343002 74.482521 212.846985 74.439003 C 212.461212 74.694374 211.686722 75.852219 211.237122 76.554466 C 210.042053 78.368141 208.806381 80.239853 207.028275 80.512634 C 204.594635 80.886971 203.660629 77.300247 202.387238 72.338043 C 202.137787 71.374619 201.807098 70.1297 201.517029 69.145981 C 200.98912 70.657845 200.356781 72.918419 199.898483 74.604416 C 198.114578 80.988548 197.467743 83.022751 195.794052 83.022751 C 194.120377 83.022751 193.627274 81.281616 192.023209 72.442513 C 191.62001 70.225471 191.077591 67.251045 190.593185 65.277771 C 190.079758 66.827362 189.482224 68.997978 188.997833 70.765213 C 186.778824 78.817932 185.902832 81.420929 183.979706 81.420929 C 182.445251 81.420929 181.888321 79.714615 181.215378 75.889938 C 180.742569 73.196991 180.278473 69.572548 179.828873 66.06707 C 179.416962 62.828583 178.906464 58.850098 178.410446 56.041084 C 177.946335 59.233154 177.467728 64.009651 177.052948 68.133209 C 175.022491 88.39994 174.134888 92.288467 171.596817 92.154968 C 170.236404 92.117249 169.85643 90.471886 169.528641 89.015137 C 169.238586 87.712196 168.893402 85.823074 168.525009 83.365189 C 167.907181 79.279335 167.18782 73.588753 166.384338 66.453026 C 165.972443 62.790855 165.580856 59.111275 165.224075 55.759613 C 164.446701 63.661423 163.695435 70.068771 162.984772 74.91201 C 162.488754 78.28109 162.013046 80.855057 161.572159 82.561356 C 161.113846 84.331497 160.585938 85.921738 159.179123 85.921738 C 157.868027 85.921738 157.418427 84.781288 156.4496 80.573563 C 155.918793 78.25206 155.289337 75.045486 154.535172 71.014771 C 154.169693 69.015388 153.815811 67.010185 153.496735 65.167496 C 151.338654 78.278183 150.494568 80.45459 148.525009 81.005959 C 146.784622 81.493469 145.812912 79.148743 145.174759 77.596252 C 144.484406 75.916046 143.756332 73.722229 143.112396 71.792488 C 142.891953 71.127953 142.651184 70.402481 142.422043 69.737953 C 140.884705 73.487175 138.581589 78.867279 134.755615 79.189377 C 130.656998 79.534698 108.841187 80.059937 104.736771 80.144089 C 103.89267 81.194565 102.068169 83.240387 100.385788 83.626343 C 98.935463 83.951355 97.737495 83.02565 96.771576 82.282776 C 96.441193 82.009354 96.090118 81.761963 95.721535 81.542801 C 95.49202 82.245827 95.308891 82.963165 95.173309 83.690193 C 94.654099 86.121971 94.013046 89.148628 91.579399 89.493958 C 88.896294 89.8741 88.052208 86.400543 87.303841 83.333252 C 87.242935 83.074997 87.170418 82.784805 87.095001 82.488815 C 86.268303 85.219475 85.192169 90.428345 84.443802 95.022034 C 84.338142 95.657562 83.791183 96.125183 83.147217 96.130547 Z"/>
    <path id="path174" fill="#006a7a" stroke="none" d="M 24.055111 76.252678 C 23.502899 73.756203 23.115311 71.226105 22.89485 68.678764 C 20.246552 38.01461 47.875267 12.640587 84.020294 12.640587 C 104.530815 12.640587 123.086304 22.710106 134.149384 37.625771 C 123.025383 20.731026 102.973167 7.791534 81.180565 5.066666 C 38.453953 -0.275681 5.108045 29.973518 5.108045 65.83783 C 5.108266 69.334877 5.453179 72.823364 6.137782 76.252678 Z"/>
    <path id="path175" fill="#006a7a" stroke="none" d="M 84.020294 123.202171 C 54.822334 121.040268 31.74184 104.049774 24.812185 79.279335 L 6.828139 79.279335 C 14.445247 108.69278 46.410442 130.776062 82.694717 130.776062 C 123.950691 130.776062 135.883987 106.951645 135.71283 107.082237 C 117.137062 121.298538 99.350258 124.339699 84.020294 123.202171 Z"/>
</svg>
